<svg xmlns="http://www.w3.org/2000/svg" viewBox="0 0 1600 1000" preserveAspectRatio="xMidYMid slice">
  <defs>
    <radialGradient id="bg" cx="25%" cy="18%" r="70%">
      <stop offset="0%" stop-color="#111a2e" />
      <stop offset="50%" stop-color="#0b1220" />
      <stop offset="100%" stop-color="#070b13" />
    </radialGradient>
    <radialGradient id="nebulaA" cx="78%" cy="22%" r="33%">
      <stop offset="0%" stop-color="#6b90da" stop-opacity="0.55" />
      <stop offset="100%" stop-color="#6b90da" stop-opacity="0" />
    </radialGradient>
    <radialGradient id="nebulaB" cx="18%" cy="76%" r="40%">
      <stop offset="0%" stop-color="#8b5ac8" stop-opacity="0.38" />
      <stop offset="100%" stop-color="#8b5ac8" stop-opacity="0" />
    </radialGradient>
  </defs>

  <rect width="1600" height="1000" fill="url(#bg)" />
  <rect width="1600" height="1000" fill="url(#nebulaA)" />
  <rect width="1600" height="1000" fill="url(#nebulaB)" />

  <g fill="#dbe9ff" opacity="0.95">
    <circle cx="90" cy="140" r="1.2" />
    <circle cx="210" cy="380" r="1" />
    <circle cx="350" cy="100" r="1.4" />
    <circle cx="500" cy="300" r="1" />
    <circle cx="700" cy="220" r="1.2" />
    <circle cx="860" cy="470" r="1" />
    <circle cx="1020" cy="180" r="1.3" />
    <circle cx="1170" cy="420" r="1" />
    <circle cx="1320" cy="230" r="1.2" />
    <circle cx="1490" cy="500" r="1" />
    <circle cx="280" cy="720" r="1.2" />
    <circle cx="560" cy="820" r="1" />
    <circle cx="780" cy="700" r="1.4" />
    <circle cx="1040" cy="840" r="1" />
    <circle cx="1380" cy="760" r="1.3" />
    <circle cx="1540" cy="680" r="1" />
  </g>
</svg>
