<svg xmlns="http://www.w3.org/2000/svg" viewBox="0 0 1600 1000" preserveAspectRatio="xMidYMid slice">
  <defs>
    <radialGradient id="g1" cx="20%" cy="20%" r="60%">
      <stop offset="0%" stop-color="#fff1d6" />
      <stop offset="45%" stop-color="#f0d9b6" />
      <stop offset="100%" stop-color="#d7bb92" />
    </radialGradient>
    <radialGradient id="n1" cx="78%" cy="18%" r="35%">
      <stop offset="0%" stop-color="#ffdca8" stop-opacity="0.85" />
      <stop offset="100%" stop-color="#ffdca8" stop-opacity="0" />
    </radialGradient>
    <radialGradient id="n2" cx="15%" cy="78%" r="40%">
      <stop offset="0%" stop-color="#ffe9c8" stop-opacity="0.65" />
      <stop offset="100%" stop-color="#ffe9c8" stop-opacity="0" />
    </radialGradient>
  </defs>

  <rect width="1600" height="1000" fill="url(#g1)" />
  <rect width="1600" height="1000" fill="url(#n1)" />
  <rect width="1600" height="1000" fill="url(#n2)" />

  <g fill="#fffdf8" opacity="0.9">
    <circle cx="120" cy="180" r="1.2" />
    <circle cx="260" cy="330" r="1" />
    <circle cx="420" cy="120" r="1.3" />
    <circle cx="560" cy="420" r="1" />
    <circle cx="760" cy="250" r="1.2" />
    <circle cx="930" cy="520" r="1" />
    <circle cx="1080" cy="160" r="1.4" />
    <circle cx="1240" cy="410" r="1" />
    <circle cx="1370" cy="230" r="1.2" />
    <circle cx="1490" cy="540" r="1" />
    <circle cx="300" cy="760" r="1.2" />
    <circle cx="540" cy="860" r="1" />
    <circle cx="820" cy="740" r="1.3" />
    <circle cx="1120" cy="820" r="1" />
    <circle cx="1460" cy="760" r="1.2" />
  </g>
</svg>
